<svg width="48" height="48" viewBox="0 0 48 48" fill="none" xmlns="http://www.w3.org/2000/svg">
<g clip-path="url(#clip0_10_5)">
<path d="M24 0L29.007 2.592L34.581 3.438L37.107 8.478L41.118 12.438L40.2 18L41.118 23.562L37.107 27.522L34.581 32.562L29.007 33.408L24 36L18.993 33.408L13.419 32.562L10.893 27.522L6.88202 23.562L7.80002 18L6.88202 12.438L10.893 8.478L13.419 3.438L18.993 2.592L24 0Z" fill="white"/>
<path d="M12 35.382V48L24 45L36 48V35.382L29.946 36.3L24 39.378L18.054 36.3L12 35.382Z" fill="white"/>
</g>
<defs>
<clipPath id="clip0_10_5">
<rect width="48" height="48" fill="white"/>
</clipPath>
</defs>
</svg>
